<mxfile host="app.diagrams.net" modified="2022-09-30T07:54:41.778Z" agent="5.0 (Windows NT 10.0; Win64; x64) AppleWebKit/537.36 (KHTML, like Gecko) Chrome/105.0.0.0 Safari/537.36" etag="vetRfDvkkQ8kYVA_DwNc" version="20.3.7" type="github">
  <diagram name="Page-1" id="edf60f1a-56cd-e834-aa8a-f176f3a09ee4">
    <mxGraphModel dx="2564" dy="1470" grid="1" gridSize="10" guides="1" tooltips="1" connect="1" arrows="1" fold="1" page="1" pageScale="1" pageWidth="1100" pageHeight="850" background="none" math="0" shadow="0">
      <root>
        <mxCell id="0" />
        <mxCell id="1" parent="0" />
        <mxCell id="VaGRmbhACiQCglpTXTLf-2" value="" style="edgeStyle=orthogonalEdgeStyle;rounded=0;orthogonalLoop=1;jettySize=auto;html=1;" edge="1" parent="1" source="VaGRmbhACiQCglpTXTLf-1" target="VaGRmbhACiQCglpTXTLf-3">
          <mxGeometry relative="1" as="geometry">
            <mxPoint x="340" y="110" as="targetPoint" />
          </mxGeometry>
        </mxCell>
        <mxCell id="VaGRmbhACiQCglpTXTLf-1" value="start" style="strokeWidth=1;html=1;shape=mxgraph.flowchart.terminator;whiteSpace=wrap;rounded=0;shadow=1;labelBackgroundColor=none;fontFamily=Verdana;fontSize=8;align=center;" vertex="1" parent="1">
          <mxGeometry x="310" y="40" width="60" height="30" as="geometry" />
        </mxCell>
        <mxCell id="VaGRmbhACiQCglpTXTLf-6" value="" style="edgeStyle=orthogonalEdgeStyle;rounded=0;orthogonalLoop=1;jettySize=auto;html=1;" edge="1" parent="1" source="VaGRmbhACiQCglpTXTLf-3" target="VaGRmbhACiQCglpTXTLf-5">
          <mxGeometry relative="1" as="geometry" />
        </mxCell>
        <mxCell id="VaGRmbhACiQCglpTXTLf-41" value="3" style="edgeStyle=orthogonalEdgeStyle;rounded=0;orthogonalLoop=1;jettySize=auto;html=1;" edge="1" parent="1" source="VaGRmbhACiQCglpTXTLf-3" target="VaGRmbhACiQCglpTXTLf-40">
          <mxGeometry relative="1" as="geometry" />
        </mxCell>
        <mxCell id="VaGRmbhACiQCglpTXTLf-45" value="2" style="edgeStyle=orthogonalEdgeStyle;rounded=0;orthogonalLoop=1;jettySize=auto;html=1;" edge="1" parent="1" source="VaGRmbhACiQCglpTXTLf-3" target="VaGRmbhACiQCglpTXTLf-44">
          <mxGeometry relative="1" as="geometry" />
        </mxCell>
        <mxCell id="VaGRmbhACiQCglpTXTLf-61" value="1" style="edgeStyle=orthogonalEdgeStyle;rounded=0;orthogonalLoop=1;jettySize=auto;html=1;" edge="1" parent="1" source="VaGRmbhACiQCglpTXTLf-3" target="VaGRmbhACiQCglpTXTLf-5">
          <mxGeometry relative="1" as="geometry" />
        </mxCell>
        <mxCell id="VaGRmbhACiQCglpTXTLf-3" value="BankApp&lt;br&gt;메인 메뉴" style="rhombus;whiteSpace=wrap;html=1;" vertex="1" parent="1">
          <mxGeometry x="300" y="110" width="80" height="80" as="geometry" />
        </mxCell>
        <mxCell id="VaGRmbhACiQCglpTXTLf-10" value="" style="edgeStyle=orthogonalEdgeStyle;rounded=0;orthogonalLoop=1;jettySize=auto;html=1;" edge="1" parent="1" source="VaGRmbhACiQCglpTXTLf-5">
          <mxGeometry relative="1" as="geometry">
            <mxPoint x="180" y="210" as="targetPoint" />
            <Array as="points">
              <mxPoint x="180" y="210" />
              <mxPoint x="180" y="210" />
            </Array>
          </mxGeometry>
        </mxCell>
        <mxCell id="VaGRmbhACiQCglpTXTLf-5" value="회원가입" style="whiteSpace=wrap;html=1;" vertex="1" parent="1">
          <mxGeometry x="120" y="120" width="120" height="60" as="geometry" />
        </mxCell>
        <mxCell id="VaGRmbhACiQCglpTXTLf-12" value="" style="edgeStyle=orthogonalEdgeStyle;rounded=0;orthogonalLoop=1;jettySize=auto;html=1;" edge="1" parent="1" source="VaGRmbhACiQCglpTXTLf-9" target="VaGRmbhACiQCglpTXTLf-11">
          <mxGeometry relative="1" as="geometry" />
        </mxCell>
        <mxCell id="VaGRmbhACiQCglpTXTLf-9" value="id입력" style="shape=parallelogram;perimeter=parallelogramPerimeter;whiteSpace=wrap;html=1;fixedSize=1;" vertex="1" parent="1">
          <mxGeometry x="120" y="210" width="120" height="60" as="geometry" />
        </mxCell>
        <mxCell id="VaGRmbhACiQCglpTXTLf-15" value="중복" style="edgeStyle=orthogonalEdgeStyle;rounded=0;orthogonalLoop=1;jettySize=auto;html=1;entryX=0.288;entryY=0.163;entryDx=0;entryDy=0;entryPerimeter=0;" edge="1" parent="1" source="VaGRmbhACiQCglpTXTLf-11" target="VaGRmbhACiQCglpTXTLf-3">
          <mxGeometry x="-0.9293" relative="1" as="geometry">
            <Array as="points">
              <mxPoint x="100" y="360" />
              <mxPoint x="100" y="90" />
              <mxPoint x="323" y="90" />
            </Array>
            <mxPoint as="offset" />
          </mxGeometry>
        </mxCell>
        <mxCell id="VaGRmbhACiQCglpTXTLf-18" value="중복X" style="edgeStyle=orthogonalEdgeStyle;rounded=0;orthogonalLoop=1;jettySize=auto;html=1;" edge="1" parent="1" source="VaGRmbhACiQCglpTXTLf-11" target="VaGRmbhACiQCglpTXTLf-16">
          <mxGeometry relative="1" as="geometry" />
        </mxCell>
        <mxCell id="VaGRmbhACiQCglpTXTLf-11" value="id중복체크" style="rhombus;whiteSpace=wrap;html=1;" vertex="1" parent="1">
          <mxGeometry x="140" y="320" width="80" height="80" as="geometry" />
        </mxCell>
        <mxCell id="VaGRmbhACiQCglpTXTLf-20" value="" style="edgeStyle=orthogonalEdgeStyle;rounded=0;orthogonalLoop=1;jettySize=auto;html=1;" edge="1" parent="1" source="VaGRmbhACiQCglpTXTLf-16" target="VaGRmbhACiQCglpTXTLf-19">
          <mxGeometry relative="1" as="geometry" />
        </mxCell>
        <mxCell id="VaGRmbhACiQCglpTXTLf-16" value="name,pw,pw2입력" style="shape=parallelogram;perimeter=parallelogramPerimeter;whiteSpace=wrap;html=1;fixedSize=1;" vertex="1" parent="1">
          <mxGeometry x="120" y="425" width="120" height="60" as="geometry" />
        </mxCell>
        <mxCell id="VaGRmbhACiQCglpTXTLf-22" value="true" style="edgeStyle=orthogonalEdgeStyle;rounded=0;orthogonalLoop=1;jettySize=auto;html=1;" edge="1" parent="1" source="VaGRmbhACiQCglpTXTLf-19" target="VaGRmbhACiQCglpTXTLf-21">
          <mxGeometry relative="1" as="geometry" />
        </mxCell>
        <mxCell id="VaGRmbhACiQCglpTXTLf-24" value="false" style="edgeStyle=orthogonalEdgeStyle;rounded=0;orthogonalLoop=1;jettySize=auto;html=1;" edge="1" parent="1" source="VaGRmbhACiQCglpTXTLf-19" target="VaGRmbhACiQCglpTXTLf-23">
          <mxGeometry relative="1" as="geometry" />
        </mxCell>
        <mxCell id="VaGRmbhACiQCglpTXTLf-19" value="pw 일치여부" style="rhombus;whiteSpace=wrap;html=1;" vertex="1" parent="1">
          <mxGeometry x="140" y="510" width="80" height="80" as="geometry" />
        </mxCell>
        <mxCell id="VaGRmbhACiQCglpTXTLf-32" value="" style="edgeStyle=orthogonalEdgeStyle;rounded=0;orthogonalLoop=1;jettySize=auto;html=1;" edge="1" parent="1" source="VaGRmbhACiQCglpTXTLf-21" target="VaGRmbhACiQCglpTXTLf-31">
          <mxGeometry relative="1" as="geometry" />
        </mxCell>
        <mxCell id="VaGRmbhACiQCglpTXTLf-21" value="회원가입 완료" style="whiteSpace=wrap;html=1;" vertex="1" parent="1">
          <mxGeometry x="280" y="560" width="120" height="60" as="geometry" />
        </mxCell>
        <mxCell id="VaGRmbhACiQCglpTXTLf-26" value="no" style="edgeStyle=orthogonalEdgeStyle;rounded=0;orthogonalLoop=1;jettySize=auto;html=1;entryX=0;entryY=1;entryDx=0;entryDy=0;exitX=0;exitY=0.5;exitDx=0;exitDy=0;" edge="1" parent="1" source="VaGRmbhACiQCglpTXTLf-23" target="VaGRmbhACiQCglpTXTLf-3">
          <mxGeometry x="-0.8571" relative="1" as="geometry">
            <mxPoint x="50" y="750" as="targetPoint" />
            <Array as="points">
              <mxPoint x="50" y="660" />
              <mxPoint x="50" y="290" />
              <mxPoint x="260" y="290" />
              <mxPoint x="260" y="170" />
            </Array>
            <mxPoint as="offset" />
          </mxGeometry>
        </mxCell>
        <mxCell id="VaGRmbhACiQCglpTXTLf-28" value="true" style="edgeStyle=orthogonalEdgeStyle;rounded=0;orthogonalLoop=1;jettySize=auto;html=1;entryX=0;entryY=0.25;entryDx=0;entryDy=0;exitX=0;exitY=0;exitDx=0;exitDy=0;" edge="1" parent="1" source="VaGRmbhACiQCglpTXTLf-23" target="VaGRmbhACiQCglpTXTLf-16">
          <mxGeometry relative="1" as="geometry">
            <Array as="points">
              <mxPoint x="155" y="620" />
              <mxPoint x="90" y="620" />
              <mxPoint x="90" y="439" />
              <mxPoint x="134" y="439" />
            </Array>
          </mxGeometry>
        </mxCell>
        <mxCell id="VaGRmbhACiQCglpTXTLf-23" value="pw 재입력 선택" style="rhombus;whiteSpace=wrap;html=1;" vertex="1" parent="1">
          <mxGeometry x="130" y="620" width="100" height="80" as="geometry" />
        </mxCell>
        <mxCell id="VaGRmbhACiQCglpTXTLf-34" value="중복X" style="edgeStyle=orthogonalEdgeStyle;rounded=0;orthogonalLoop=1;jettySize=auto;html=1;" edge="1" parent="1" source="VaGRmbhACiQCglpTXTLf-31" target="VaGRmbhACiQCglpTXTLf-33">
          <mxGeometry relative="1" as="geometry" />
        </mxCell>
        <mxCell id="VaGRmbhACiQCglpTXTLf-31" value="계좌번호&lt;br&gt;중복?" style="rhombus;whiteSpace=wrap;html=1;" vertex="1" parent="1">
          <mxGeometry x="300" y="640" width="80" height="80" as="geometry" />
        </mxCell>
        <mxCell id="VaGRmbhACiQCglpTXTLf-39" value="" style="edgeStyle=orthogonalEdgeStyle;rounded=0;orthogonalLoop=1;jettySize=auto;html=1;" edge="1" parent="1" source="VaGRmbhACiQCglpTXTLf-33" target="VaGRmbhACiQCglpTXTLf-38">
          <mxGeometry relative="1" as="geometry" />
        </mxCell>
        <mxCell id="VaGRmbhACiQCglpTXTLf-54" value="" style="edgeStyle=orthogonalEdgeStyle;rounded=0;orthogonalLoop=1;jettySize=auto;html=1;" edge="1" parent="1" source="VaGRmbhACiQCglpTXTLf-33" target="VaGRmbhACiQCglpTXTLf-53">
          <mxGeometry relative="1" as="geometry" />
        </mxCell>
        <mxCell id="VaGRmbhACiQCglpTXTLf-33" value="계좌번호자동 생성" style="whiteSpace=wrap;html=1;" vertex="1" parent="1">
          <mxGeometry x="280" y="770" width="120" height="60" as="geometry" />
        </mxCell>
        <mxCell id="VaGRmbhACiQCglpTXTLf-35" value="중복o" style="edgeStyle=orthogonalEdgeStyle;rounded=0;orthogonalLoop=1;jettySize=auto;html=1;exitX=1;exitY=0;exitDx=0;exitDy=0;entryX=1;entryY=1;entryDx=0;entryDy=0;" edge="1" parent="1" source="VaGRmbhACiQCglpTXTLf-31" target="VaGRmbhACiQCglpTXTLf-31">
          <mxGeometry relative="1" as="geometry">
            <Array as="points">
              <mxPoint x="410" y="660" />
              <mxPoint x="410" y="700" />
            </Array>
          </mxGeometry>
        </mxCell>
        <mxCell id="VaGRmbhACiQCglpTXTLf-38" value="계좌번호 출력" style="shape=parallelogram;perimeter=parallelogramPerimeter;whiteSpace=wrap;html=1;fixedSize=1;" vertex="1" parent="1">
          <mxGeometry x="280" y="860" width="120" height="60" as="geometry" />
        </mxCell>
        <mxCell id="VaGRmbhACiQCglpTXTLf-43" value="" style="edgeStyle=orthogonalEdgeStyle;rounded=0;orthogonalLoop=1;jettySize=auto;html=1;" edge="1" parent="1" source="VaGRmbhACiQCglpTXTLf-40" target="VaGRmbhACiQCglpTXTLf-42">
          <mxGeometry relative="1" as="geometry" />
        </mxCell>
        <mxCell id="VaGRmbhACiQCglpTXTLf-40" value="종료" style="whiteSpace=wrap;html=1;" vertex="1" parent="1">
          <mxGeometry x="300" y="250" width="80" height="30" as="geometry" />
        </mxCell>
        <mxCell id="VaGRmbhACiQCglpTXTLf-42" value="시스템 종료" style="ellipse;whiteSpace=wrap;html=1;" vertex="1" parent="1">
          <mxGeometry x="300" y="330" width="80" height="30" as="geometry" />
        </mxCell>
        <mxCell id="VaGRmbhACiQCglpTXTLf-47" value="" style="edgeStyle=orthogonalEdgeStyle;rounded=0;orthogonalLoop=1;jettySize=auto;html=1;" edge="1" parent="1" source="VaGRmbhACiQCglpTXTLf-44" target="VaGRmbhACiQCglpTXTLf-46">
          <mxGeometry relative="1" as="geometry" />
        </mxCell>
        <mxCell id="VaGRmbhACiQCglpTXTLf-44" value="로그인" style="whiteSpace=wrap;html=1;" vertex="1" parent="1">
          <mxGeometry x="460" y="120" width="120" height="60" as="geometry" />
        </mxCell>
        <mxCell id="VaGRmbhACiQCglpTXTLf-49" value="" style="edgeStyle=orthogonalEdgeStyle;rounded=0;orthogonalLoop=1;jettySize=auto;html=1;" edge="1" parent="1" source="VaGRmbhACiQCglpTXTLf-46" target="VaGRmbhACiQCglpTXTLf-48">
          <mxGeometry relative="1" as="geometry" />
        </mxCell>
        <mxCell id="VaGRmbhACiQCglpTXTLf-46" value="id,pw입력" style="shape=parallelogram;perimeter=parallelogramPerimeter;whiteSpace=wrap;html=1;fixedSize=1;" vertex="1" parent="1">
          <mxGeometry x="460" y="200" width="120" height="60" as="geometry" />
        </mxCell>
        <mxCell id="VaGRmbhACiQCglpTXTLf-50" value="false" style="edgeStyle=orthogonalEdgeStyle;rounded=0;orthogonalLoop=1;jettySize=auto;html=1;entryX=1;entryY=0.5;entryDx=0;entryDy=0;" edge="1" parent="1" source="VaGRmbhACiQCglpTXTLf-48" target="VaGRmbhACiQCglpTXTLf-3">
          <mxGeometry x="-0.7022" relative="1" as="geometry">
            <Array as="points">
              <mxPoint x="420" y="335" />
              <mxPoint x="420" y="210" />
              <mxPoint x="380" y="210" />
            </Array>
            <mxPoint as="offset" />
          </mxGeometry>
        </mxCell>
        <mxCell id="VaGRmbhACiQCglpTXTLf-52" value="true" style="edgeStyle=orthogonalEdgeStyle;rounded=0;orthogonalLoop=1;jettySize=auto;html=1;" edge="1" parent="1" source="VaGRmbhACiQCglpTXTLf-48" target="VaGRmbhACiQCglpTXTLf-51">
          <mxGeometry x="-0.7714" relative="1" as="geometry">
            <mxPoint as="offset" />
          </mxGeometry>
        </mxCell>
        <mxCell id="VaGRmbhACiQCglpTXTLf-48" value="id 또는 pw 일치?" style="rhombus;whiteSpace=wrap;html=1;" vertex="1" parent="1">
          <mxGeometry x="470" y="290" width="100" height="90" as="geometry" />
        </mxCell>
        <mxCell id="VaGRmbhACiQCglpTXTLf-58" value="false" style="edgeStyle=orthogonalEdgeStyle;rounded=0;orthogonalLoop=1;jettySize=auto;html=1;" edge="1" parent="1" source="VaGRmbhACiQCglpTXTLf-51" target="VaGRmbhACiQCglpTXTLf-57">
          <mxGeometry x="-0.8518" relative="1" as="geometry">
            <mxPoint as="offset" />
          </mxGeometry>
        </mxCell>
        <mxCell id="VaGRmbhACiQCglpTXTLf-67" value="true" style="edgeStyle=orthogonalEdgeStyle;rounded=0;orthogonalLoop=1;jettySize=auto;html=1;exitX=0.5;exitY=1;exitDx=0;exitDy=0;" edge="1" parent="1" source="VaGRmbhACiQCglpTXTLf-51" target="VaGRmbhACiQCglpTXTLf-66">
          <mxGeometry x="-0.8519" relative="1" as="geometry">
            <Array as="points">
              <mxPoint x="970" y="430" />
              <mxPoint x="790" y="430" />
            </Array>
            <mxPoint as="offset" />
          </mxGeometry>
        </mxCell>
        <mxCell id="VaGRmbhACiQCglpTXTLf-51" value="id=admin?" style="rhombus;whiteSpace=wrap;html=1;" vertex="1" parent="1">
          <mxGeometry x="920" y="290" width="100" height="90" as="geometry" />
        </mxCell>
        <mxCell id="VaGRmbhACiQCglpTXTLf-53" value="accountNo+BankHistory&amp;nbsp;&lt;br&gt;파일 생성" style="whiteSpace=wrap;html=1;" vertex="1" parent="1">
          <mxGeometry x="50" y="765" width="140" height="70" as="geometry" />
        </mxCell>
        <mxCell id="VaGRmbhACiQCglpTXTLf-90" value="1" style="edgeStyle=orthogonalEdgeStyle;rounded=0;orthogonalLoop=1;jettySize=auto;html=1;" edge="1" parent="1" source="VaGRmbhACiQCglpTXTLf-57" target="VaGRmbhACiQCglpTXTLf-89">
          <mxGeometry relative="1" as="geometry" />
        </mxCell>
        <mxCell id="VaGRmbhACiQCglpTXTLf-94" value="2" style="edgeStyle=orthogonalEdgeStyle;rounded=0;orthogonalLoop=1;jettySize=auto;html=1;entryX=0.5;entryY=0;entryDx=0;entryDy=0;" edge="1" parent="1" source="VaGRmbhACiQCglpTXTLf-57" target="VaGRmbhACiQCglpTXTLf-95">
          <mxGeometry relative="1" as="geometry">
            <mxPoint x="1424.9999999999995" y="610" as="targetPoint" />
          </mxGeometry>
        </mxCell>
        <mxCell id="VaGRmbhACiQCglpTXTLf-97" value="3" style="edgeStyle=orthogonalEdgeStyle;rounded=0;orthogonalLoop=1;jettySize=auto;html=1;" edge="1" parent="1" source="VaGRmbhACiQCglpTXTLf-57" target="VaGRmbhACiQCglpTXTLf-96">
          <mxGeometry relative="1" as="geometry" />
        </mxCell>
        <mxCell id="VaGRmbhACiQCglpTXTLf-113" value="4" style="edgeStyle=orthogonalEdgeStyle;rounded=0;orthogonalLoop=1;jettySize=auto;html=1;exitX=0.5;exitY=1;exitDx=0;exitDy=0;" edge="1" parent="1" source="VaGRmbhACiQCglpTXTLf-57" target="VaGRmbhACiQCglpTXTLf-112">
          <mxGeometry relative="1" as="geometry">
            <mxPoint x="1420" y="530" as="sourcePoint" />
            <Array as="points">
              <mxPoint x="1425" y="570" />
              <mxPoint x="1680" y="570" />
            </Array>
          </mxGeometry>
        </mxCell>
        <mxCell id="VaGRmbhACiQCglpTXTLf-127" value="" style="edgeStyle=orthogonalEdgeStyle;rounded=0;orthogonalLoop=1;jettySize=auto;html=1;" edge="1" parent="1" source="VaGRmbhACiQCglpTXTLf-57" target="VaGRmbhACiQCglpTXTLf-126">
          <mxGeometry relative="1" as="geometry" />
        </mxCell>
        <mxCell id="VaGRmbhACiQCglpTXTLf-130" value="" style="edgeStyle=orthogonalEdgeStyle;rounded=0;orthogonalLoop=1;jettySize=auto;html=1;" edge="1" parent="1" source="VaGRmbhACiQCglpTXTLf-57" target="VaGRmbhACiQCglpTXTLf-129">
          <mxGeometry relative="1" as="geometry" />
        </mxCell>
        <mxCell id="VaGRmbhACiQCglpTXTLf-138" value="" style="edgeStyle=orthogonalEdgeStyle;rounded=0;orthogonalLoop=1;jettySize=auto;html=1;" edge="1" parent="1" source="VaGRmbhACiQCglpTXTLf-57" target="VaGRmbhACiQCglpTXTLf-137">
          <mxGeometry relative="1" as="geometry" />
        </mxCell>
        <mxCell id="VaGRmbhACiQCglpTXTLf-57" value="일반 사용자 페이지" style="whiteSpace=wrap;html=1;" vertex="1" parent="1">
          <mxGeometry x="1360" y="470" width="130" height="60" as="geometry" />
        </mxCell>
        <mxCell id="VaGRmbhACiQCglpTXTLf-69" value="1" style="edgeStyle=orthogonalEdgeStyle;rounded=0;orthogonalLoop=1;jettySize=auto;html=1;" edge="1" parent="1" source="VaGRmbhACiQCglpTXTLf-66" target="VaGRmbhACiQCglpTXTLf-68">
          <mxGeometry relative="1" as="geometry">
            <Array as="points">
              <mxPoint x="770" y="580" />
              <mxPoint x="600" y="580" />
            </Array>
          </mxGeometry>
        </mxCell>
        <mxCell id="VaGRmbhACiQCglpTXTLf-71" value="2" style="edgeStyle=orthogonalEdgeStyle;rounded=0;orthogonalLoop=1;jettySize=auto;html=1;" edge="1" parent="1" source="VaGRmbhACiQCglpTXTLf-66" target="VaGRmbhACiQCglpTXTLf-70">
          <mxGeometry relative="1" as="geometry" />
        </mxCell>
        <mxCell id="VaGRmbhACiQCglpTXTLf-73" value="3" style="edgeStyle=orthogonalEdgeStyle;rounded=0;orthogonalLoop=1;jettySize=auto;html=1;exitX=0.5;exitY=1;exitDx=0;exitDy=0;" edge="1" parent="1" source="VaGRmbhACiQCglpTXTLf-66" target="VaGRmbhACiQCglpTXTLf-72">
          <mxGeometry relative="1" as="geometry" />
        </mxCell>
        <mxCell id="VaGRmbhACiQCglpTXTLf-75" value="4" style="edgeStyle=orthogonalEdgeStyle;rounded=0;orthogonalLoop=1;jettySize=auto;html=1;" edge="1" parent="1" source="VaGRmbhACiQCglpTXTLf-66" target="VaGRmbhACiQCglpTXTLf-74">
          <mxGeometry relative="1" as="geometry" />
        </mxCell>
        <mxCell id="VaGRmbhACiQCglpTXTLf-66" value="관리자 페이지" style="rounded=1;whiteSpace=wrap;html=1;" vertex="1" parent="1">
          <mxGeometry x="710" y="470" width="120" height="60" as="geometry" />
        </mxCell>
        <mxCell id="VaGRmbhACiQCglpTXTLf-68" value="전체 사용자 조회" style="whiteSpace=wrap;html=1;rounded=1;" vertex="1" parent="1">
          <mxGeometry x="540" y="640" width="120" height="60" as="geometry" />
        </mxCell>
        <mxCell id="VaGRmbhACiQCglpTXTLf-84" value="" style="edgeStyle=orthogonalEdgeStyle;rounded=0;orthogonalLoop=1;jettySize=auto;html=1;" edge="1" parent="1" source="VaGRmbhACiQCglpTXTLf-70" target="VaGRmbhACiQCglpTXTLf-83">
          <mxGeometry relative="1" as="geometry" />
        </mxCell>
        <mxCell id="VaGRmbhACiQCglpTXTLf-70" value="등급별 회원 수 조회" style="whiteSpace=wrap;html=1;rounded=1;" vertex="1" parent="1">
          <mxGeometry x="705" y="705" width="130" height="60" as="geometry" />
        </mxCell>
        <mxCell id="VaGRmbhACiQCglpTXTLf-78" value="" style="edgeStyle=orthogonalEdgeStyle;rounded=0;orthogonalLoop=1;jettySize=auto;html=1;" edge="1" parent="1" source="VaGRmbhACiQCglpTXTLf-72" target="VaGRmbhACiQCglpTXTLf-77">
          <mxGeometry relative="1" as="geometry" />
        </mxCell>
        <mxCell id="VaGRmbhACiQCglpTXTLf-72" value="회원검색" style="whiteSpace=wrap;html=1;rounded=1;" vertex="1" parent="1">
          <mxGeometry x="890" y="630" width="120" height="60" as="geometry" />
        </mxCell>
        <mxCell id="VaGRmbhACiQCglpTXTLf-76" style="edgeStyle=orthogonalEdgeStyle;rounded=0;orthogonalLoop=1;jettySize=auto;html=1;entryX=1;entryY=0;entryDx=0;entryDy=0;" edge="1" parent="1" source="VaGRmbhACiQCglpTXTLf-74" target="VaGRmbhACiQCglpTXTLf-3">
          <mxGeometry relative="1" as="geometry">
            <Array as="points">
              <mxPoint x="1040" y="500" />
              <mxPoint x="1040" y="80" />
              <mxPoint x="360" y="80" />
            </Array>
          </mxGeometry>
        </mxCell>
        <mxCell id="VaGRmbhACiQCglpTXTLf-74" value="로그아웃" style="whiteSpace=wrap;html=1;rounded=1;" vertex="1" parent="1">
          <mxGeometry x="900" y="470" width="120" height="60" as="geometry" />
        </mxCell>
        <mxCell id="VaGRmbhACiQCglpTXTLf-80" value="" style="edgeStyle=orthogonalEdgeStyle;rounded=0;orthogonalLoop=1;jettySize=auto;html=1;" edge="1" parent="1" source="VaGRmbhACiQCglpTXTLf-77" target="VaGRmbhACiQCglpTXTLf-79">
          <mxGeometry relative="1" as="geometry" />
        </mxCell>
        <mxCell id="VaGRmbhACiQCglpTXTLf-77" value="이름 키워드 입력" style="shape=parallelogram;perimeter=parallelogramPerimeter;whiteSpace=wrap;html=1;fixedSize=1;rounded=1;" vertex="1" parent="1">
          <mxGeometry x="890" y="730" width="120" height="60" as="geometry" />
        </mxCell>
        <mxCell id="VaGRmbhACiQCglpTXTLf-79" value="키워드 포함결과&lt;br&gt;출력" style="shape=parallelogram;perimeter=parallelogramPerimeter;whiteSpace=wrap;html=1;fixedSize=1;rounded=1;" vertex="1" parent="1">
          <mxGeometry x="890" y="870" width="120" height="60" as="geometry" />
        </mxCell>
        <mxCell id="VaGRmbhACiQCglpTXTLf-86" value="" style="edgeStyle=orthogonalEdgeStyle;rounded=0;orthogonalLoop=1;jettySize=auto;html=1;" edge="1" parent="1" source="VaGRmbhACiQCglpTXTLf-83" target="VaGRmbhACiQCglpTXTLf-85">
          <mxGeometry relative="1" as="geometry" />
        </mxCell>
        <mxCell id="VaGRmbhACiQCglpTXTLf-83" value="1.VIP 2.A 3.B 4.C 5.뒤로가기" style="whiteSpace=wrap;html=1;rounded=1;" vertex="1" parent="1">
          <mxGeometry x="550" y="830" width="170" height="50" as="geometry" />
        </mxCell>
        <mxCell id="VaGRmbhACiQCglpTXTLf-88" value="" style="edgeStyle=orthogonalEdgeStyle;rounded=0;orthogonalLoop=1;jettySize=auto;html=1;" edge="1" parent="1" source="VaGRmbhACiQCglpTXTLf-85" target="VaGRmbhACiQCglpTXTLf-87">
          <mxGeometry relative="1" as="geometry" />
        </mxCell>
        <mxCell id="VaGRmbhACiQCglpTXTLf-85" value="번호입력" style="shape=parallelogram;perimeter=parallelogramPerimeter;whiteSpace=wrap;html=1;fixedSize=1;rounded=1;" vertex="1" parent="1">
          <mxGeometry x="575" y="930" width="120" height="50" as="geometry" />
        </mxCell>
        <mxCell id="VaGRmbhACiQCglpTXTLf-87" value="회원 수 출력" style="shape=parallelogram;perimeter=parallelogramPerimeter;whiteSpace=wrap;html=1;fixedSize=1;rounded=1;" vertex="1" parent="1">
          <mxGeometry x="575" y="1040" width="120" height="60" as="geometry" />
        </mxCell>
        <mxCell id="VaGRmbhACiQCglpTXTLf-89" value="나의 계좌정보 조회" style="rounded=1;whiteSpace=wrap;html=1;" vertex="1" parent="1">
          <mxGeometry x="1140" y="600" width="120" height="60" as="geometry" />
        </mxCell>
        <mxCell id="VaGRmbhACiQCglpTXTLf-99" value="" style="edgeStyle=orthogonalEdgeStyle;rounded=0;orthogonalLoop=1;jettySize=auto;html=1;" edge="1" parent="1" source="VaGRmbhACiQCglpTXTLf-95" target="VaGRmbhACiQCglpTXTLf-98">
          <mxGeometry relative="1" as="geometry" />
        </mxCell>
        <mxCell id="VaGRmbhACiQCglpTXTLf-95" value="예금" style="rounded=1;whiteSpace=wrap;html=1;" vertex="1" parent="1">
          <mxGeometry x="1280" y="600" width="120" height="60" as="geometry" />
        </mxCell>
        <mxCell id="VaGRmbhACiQCglpTXTLf-101" value="" style="edgeStyle=orthogonalEdgeStyle;rounded=0;orthogonalLoop=1;jettySize=auto;html=1;" edge="1" parent="1" source="VaGRmbhACiQCglpTXTLf-96" target="VaGRmbhACiQCglpTXTLf-100">
          <mxGeometry relative="1" as="geometry" />
        </mxCell>
        <mxCell id="VaGRmbhACiQCglpTXTLf-96" value="출금" style="rounded=1;whiteSpace=wrap;html=1;" vertex="1" parent="1">
          <mxGeometry x="1440" y="600" width="120" height="60" as="geometry" />
        </mxCell>
        <mxCell id="VaGRmbhACiQCglpTXTLf-103" value="" style="edgeStyle=orthogonalEdgeStyle;rounded=0;orthogonalLoop=1;jettySize=auto;html=1;" edge="1" parent="1" source="VaGRmbhACiQCglpTXTLf-98" target="VaGRmbhACiQCglpTXTLf-102">
          <mxGeometry relative="1" as="geometry" />
        </mxCell>
        <mxCell id="VaGRmbhACiQCglpTXTLf-98" value="입금액=money" style="shape=parallelogram;perimeter=parallelogramPerimeter;whiteSpace=wrap;html=1;fixedSize=1;rounded=1;" vertex="1" parent="1">
          <mxGeometry x="1280" y="705" width="120" height="60" as="geometry" />
        </mxCell>
        <mxCell id="VaGRmbhACiQCglpTXTLf-105" value="" style="edgeStyle=orthogonalEdgeStyle;rounded=0;orthogonalLoop=1;jettySize=auto;html=1;" edge="1" parent="1" source="VaGRmbhACiQCglpTXTLf-100" target="VaGRmbhACiQCglpTXTLf-104">
          <mxGeometry relative="1" as="geometry" />
        </mxCell>
        <mxCell id="VaGRmbhACiQCglpTXTLf-100" value="출금액=money" style="shape=parallelogram;perimeter=parallelogramPerimeter;whiteSpace=wrap;html=1;fixedSize=1;rounded=1;" vertex="1" parent="1">
          <mxGeometry x="1440" y="920" width="120" height="60" as="geometry" />
        </mxCell>
        <mxCell id="VaGRmbhACiQCglpTXTLf-109" value="" style="edgeStyle=orthogonalEdgeStyle;rounded=0;orthogonalLoop=1;jettySize=auto;html=1;" edge="1" parent="1" source="VaGRmbhACiQCglpTXTLf-102" target="VaGRmbhACiQCglpTXTLf-108">
          <mxGeometry relative="1" as="geometry" />
        </mxCell>
        <mxCell id="VaGRmbhACiQCglpTXTLf-102" value="잔액 = 잔액+money" style="whiteSpace=wrap;html=1;rounded=1;" vertex="1" parent="1">
          <mxGeometry x="1280" y="820" width="120" height="45" as="geometry" />
        </mxCell>
        <mxCell id="VaGRmbhACiQCglpTXTLf-107" value="true" style="edgeStyle=orthogonalEdgeStyle;rounded=0;orthogonalLoop=1;jettySize=auto;html=1;" edge="1" parent="1" source="VaGRmbhACiQCglpTXTLf-104" target="VaGRmbhACiQCglpTXTLf-106">
          <mxGeometry relative="1" as="geometry" />
        </mxCell>
        <mxCell id="VaGRmbhACiQCglpTXTLf-104" value="출금액&amp;lt;=잔액?" style="rhombus;whiteSpace=wrap;html=1;rounded=1;" vertex="1" parent="1">
          <mxGeometry x="1445" y="1050" width="110" height="90" as="geometry" />
        </mxCell>
        <mxCell id="VaGRmbhACiQCglpTXTLf-111" value="" style="edgeStyle=orthogonalEdgeStyle;rounded=0;orthogonalLoop=1;jettySize=auto;html=1;" edge="1" parent="1" source="VaGRmbhACiQCglpTXTLf-106" target="VaGRmbhACiQCglpTXTLf-110">
          <mxGeometry relative="1" as="geometry" />
        </mxCell>
        <mxCell id="VaGRmbhACiQCglpTXTLf-106" value="잔액=잔액-money" style="whiteSpace=wrap;html=1;rounded=1;" vertex="1" parent="1">
          <mxGeometry x="1440" y="1220" width="120" height="60" as="geometry" />
        </mxCell>
        <mxCell id="VaGRmbhACiQCglpTXTLf-108" value="잔액" style="shape=parallelogram;perimeter=parallelogramPerimeter;whiteSpace=wrap;html=1;fixedSize=1;rounded=1;" vertex="1" parent="1">
          <mxGeometry x="1280" y="900" width="120" height="60" as="geometry" />
        </mxCell>
        <mxCell id="VaGRmbhACiQCglpTXTLf-110" value="잔액" style="shape=parallelogram;perimeter=parallelogramPerimeter;whiteSpace=wrap;html=1;fixedSize=1;rounded=1;" vertex="1" parent="1">
          <mxGeometry x="1440" y="1320" width="120" height="60" as="geometry" />
        </mxCell>
        <mxCell id="VaGRmbhACiQCglpTXTLf-115" value="" style="edgeStyle=orthogonalEdgeStyle;rounded=0;orthogonalLoop=1;jettySize=auto;html=1;" edge="1" parent="1" source="VaGRmbhACiQCglpTXTLf-112" target="VaGRmbhACiQCglpTXTLf-114">
          <mxGeometry relative="1" as="geometry" />
        </mxCell>
        <mxCell id="VaGRmbhACiQCglpTXTLf-112" value="송금" style="rounded=1;whiteSpace=wrap;html=1;" vertex="1" parent="1">
          <mxGeometry x="1620" y="600" width="120" height="60" as="geometry" />
        </mxCell>
        <mxCell id="VaGRmbhACiQCglpTXTLf-117" value="" style="edgeStyle=orthogonalEdgeStyle;rounded=0;orthogonalLoop=1;jettySize=auto;html=1;" edge="1" parent="1" source="VaGRmbhACiQCglpTXTLf-114" target="VaGRmbhACiQCglpTXTLf-116">
          <mxGeometry relative="1" as="geometry" />
        </mxCell>
        <mxCell id="VaGRmbhACiQCglpTXTLf-114" value="상대 계좌번호" style="shape=parallelogram;perimeter=parallelogramPerimeter;whiteSpace=wrap;html=1;fixedSize=1;rounded=1;" vertex="1" parent="1">
          <mxGeometry x="1620" y="710" width="120" height="60" as="geometry" />
        </mxCell>
        <mxCell id="VaGRmbhACiQCglpTXTLf-124" value="true" style="edgeStyle=orthogonalEdgeStyle;rounded=0;orthogonalLoop=1;jettySize=auto;html=1;" edge="1" parent="1" source="VaGRmbhACiQCglpTXTLf-116" target="VaGRmbhACiQCglpTXTLf-100">
          <mxGeometry x="-0.5992" relative="1" as="geometry">
            <mxPoint as="offset" />
          </mxGeometry>
        </mxCell>
        <mxCell id="VaGRmbhACiQCglpTXTLf-125" value="false" style="edgeStyle=orthogonalEdgeStyle;rounded=0;orthogonalLoop=1;jettySize=auto;html=1;entryX=1;entryY=1;entryDx=0;entryDy=0;" edge="1" parent="1" source="VaGRmbhACiQCglpTXTLf-116" target="VaGRmbhACiQCglpTXTLf-57">
          <mxGeometry x="-0.9349" relative="1" as="geometry">
            <Array as="points">
              <mxPoint x="1770" y="890" />
              <mxPoint x="1770" y="530" />
            </Array>
            <mxPoint as="offset" />
          </mxGeometry>
        </mxCell>
        <mxCell id="VaGRmbhACiQCglpTXTLf-116" value="상대계좌 exist?" style="rhombus;whiteSpace=wrap;html=1;rounded=1;" vertex="1" parent="1">
          <mxGeometry x="1615" y="840" width="130" height="100" as="geometry" />
        </mxCell>
        <mxCell id="VaGRmbhACiQCglpTXTLf-126" value="거래내역 조회" style="rounded=1;whiteSpace=wrap;html=1;" vertex="1" parent="1">
          <mxGeometry x="1790" y="600" width="120" height="60" as="geometry" />
        </mxCell>
        <mxCell id="VaGRmbhACiQCglpTXTLf-132" value="" style="edgeStyle=orthogonalEdgeStyle;rounded=0;orthogonalLoop=1;jettySize=auto;html=1;" edge="1" parent="1" source="VaGRmbhACiQCglpTXTLf-129" target="VaGRmbhACiQCglpTXTLf-131">
          <mxGeometry relative="1" as="geometry" />
        </mxCell>
        <mxCell id="VaGRmbhACiQCglpTXTLf-129" value="비밀번호 변경" style="rounded=1;whiteSpace=wrap;html=1;" vertex="1" parent="1">
          <mxGeometry x="1940" y="600" width="120" height="60" as="geometry" />
        </mxCell>
        <mxCell id="VaGRmbhACiQCglpTXTLf-134" value="" style="edgeStyle=orthogonalEdgeStyle;rounded=0;orthogonalLoop=1;jettySize=auto;html=1;" edge="1" parent="1" source="VaGRmbhACiQCglpTXTLf-131" target="VaGRmbhACiQCglpTXTLf-133">
          <mxGeometry relative="1" as="geometry" />
        </mxCell>
        <mxCell id="VaGRmbhACiQCglpTXTLf-131" value="변경할 비밀번호&lt;br&gt;&amp;nbsp;입력" style="shape=parallelogram;perimeter=parallelogramPerimeter;whiteSpace=wrap;html=1;fixedSize=1;rounded=1;" vertex="1" parent="1">
          <mxGeometry x="1940" y="740" width="120" height="60" as="geometry" />
        </mxCell>
        <mxCell id="VaGRmbhACiQCglpTXTLf-133" value="변경완료" style="whiteSpace=wrap;html=1;rounded=1;" vertex="1" parent="1">
          <mxGeometry x="1940" y="880" width="120" height="60" as="geometry" />
        </mxCell>
        <mxCell id="VaGRmbhACiQCglpTXTLf-140" value="" style="edgeStyle=orthogonalEdgeStyle;rounded=0;orthogonalLoop=1;jettySize=auto;html=1;" edge="1" parent="1" source="VaGRmbhACiQCglpTXTLf-137" target="VaGRmbhACiQCglpTXTLf-139">
          <mxGeometry relative="1" as="geometry" />
        </mxCell>
        <mxCell id="VaGRmbhACiQCglpTXTLf-137" value="회원탈퇴" style="rounded=1;whiteSpace=wrap;html=1;" vertex="1" parent="1">
          <mxGeometry x="2110" y="600" width="120" height="60" as="geometry" />
        </mxCell>
        <mxCell id="VaGRmbhACiQCglpTXTLf-142" value="" style="edgeStyle=orthogonalEdgeStyle;rounded=0;orthogonalLoop=1;jettySize=auto;html=1;" edge="1" parent="1" source="VaGRmbhACiQCglpTXTLf-139" target="VaGRmbhACiQCglpTXTLf-141">
          <mxGeometry relative="1" as="geometry" />
        </mxCell>
        <mxCell id="VaGRmbhACiQCglpTXTLf-139" value="비밀번호 입력" style="shape=parallelogram;perimeter=parallelogramPerimeter;whiteSpace=wrap;html=1;fixedSize=1;rounded=1;" vertex="1" parent="1">
          <mxGeometry x="2110" y="740" width="120" height="60" as="geometry" />
        </mxCell>
        <mxCell id="VaGRmbhACiQCglpTXTLf-144" value="true" style="edgeStyle=orthogonalEdgeStyle;rounded=0;orthogonalLoop=1;jettySize=auto;html=1;" edge="1" parent="1" source="VaGRmbhACiQCglpTXTLf-141" target="VaGRmbhACiQCglpTXTLf-143">
          <mxGeometry relative="1" as="geometry" />
        </mxCell>
        <mxCell id="VaGRmbhACiQCglpTXTLf-146" style="edgeStyle=orthogonalEdgeStyle;rounded=0;orthogonalLoop=1;jettySize=auto;html=1;entryX=1;entryY=0.5;entryDx=0;entryDy=0;" edge="1" parent="1" source="VaGRmbhACiQCglpTXTLf-141" target="VaGRmbhACiQCglpTXTLf-57">
          <mxGeometry relative="1" as="geometry">
            <Array as="points">
              <mxPoint x="2310" y="910" />
              <mxPoint x="2310" y="450" />
              <mxPoint x="1490" y="450" />
            </Array>
          </mxGeometry>
        </mxCell>
        <mxCell id="VaGRmbhACiQCglpTXTLf-147" value="false" style="edgeLabel;html=1;align=center;verticalAlign=middle;resizable=0;points=[];" vertex="1" connectable="0" parent="VaGRmbhACiQCglpTXTLf-146">
          <mxGeometry x="-0.6629" y="-3" relative="1" as="geometry">
            <mxPoint y="141" as="offset" />
          </mxGeometry>
        </mxCell>
        <mxCell id="VaGRmbhACiQCglpTXTLf-141" value="비밀번호&lt;br&gt;&amp;nbsp;일치?" style="rhombus;whiteSpace=wrap;html=1;rounded=1;" vertex="1" parent="1">
          <mxGeometry x="2130" y="870" width="80" height="80" as="geometry" />
        </mxCell>
        <mxCell id="VaGRmbhACiQCglpTXTLf-145" style="edgeStyle=orthogonalEdgeStyle;rounded=0;orthogonalLoop=1;jettySize=auto;html=1;entryX=1;entryY=1;entryDx=0;entryDy=0;" edge="1" parent="1" source="VaGRmbhACiQCglpTXTLf-143" target="VaGRmbhACiQCglpTXTLf-3">
          <mxGeometry relative="1" as="geometry">
            <Array as="points">
              <mxPoint x="2270" y="1050" />
              <mxPoint x="2270" y="100" />
              <mxPoint x="360" y="100" />
            </Array>
          </mxGeometry>
        </mxCell>
        <mxCell id="VaGRmbhACiQCglpTXTLf-143" value="탈퇴완료" style="whiteSpace=wrap;html=1;rounded=1;" vertex="1" parent="1">
          <mxGeometry x="2110" y="1020" width="120" height="60" as="geometry" />
        </mxCell>
      </root>
    </mxGraphModel>
  </diagram>
</mxfile>
